<svg xmlns="http://www.w3.org/2000/svg" viewBox="0 0 256 256" width="256" height="256">
  <defs>
    <linearGradient id="g" x1="0" y1="0" x2="1" y2="1">
      <stop offset="0%" stop-color="#7c4dff"/>
      <stop offset="100%" stop-color="#38bdf8"/>
    </linearGradient>
    <radialGradient id="glow" cx="50%" cy="40%" r="65%">
      <stop offset="0%" stop-color="rgba(255,255,255,0.45)"/>
      <stop offset="60%" stop-color="rgba(255,255,255,0.05)"/>
      <stop offset="100%" stop-color="rgba(255,255,255,0)"/>
    </radialGradient>
  </defs>
  <rect width="256" height="256" rx="48" fill="url(#g)"/>
  <rect width="256" height="256" rx="48" fill="url(#glow)"/>
  <g fill="none" stroke="#fff" stroke-width="10" stroke-linecap="round" stroke-linejoin="round">
    <path d="M64 168 V112 a16 16 0 0 1 16-16 h128 a16 16 0 0 1 16 16 v56 a16 16 0 0 1 -16 16 h-128 a16 16 0 0 1 -16-16z"/>
    <path d="M64 112 L160 64" />
    <circle cx="100" cy="148" r="20" />
    <circle cx="180" cy="140" r="6" fill="#fff"/>
    <circle cx="180" cy="160" r="6" fill="#fff"/>
  </g>
</svg>
